<?xml version="1.0" encoding="UTF-8"?>
<svg height="465px" version="1.1" viewBox="0 0 1071 465" width="1071px"
    xmlns="http://www.w3.org/2000/svg">
    <title>logo</title>
    <g fill="none" fill-rule="evenodd" id="logo" stroke="none" stroke-width="1">
        <g fill="#FAFAFA" font-family="ModernistOne, Modernist One" font-size="159"
            id="title" transform="translate(603.000000, 0.000000)">
            <text id="Stories">
                <tspan x="0.626" y="118">Stories</tspan>
            </text>
            <text id="&amp;">
                <tspan x="162.7265" y="273">&amp;</tspan>
            </text>
            <text id="Coffee">
                <tspan x="27.4175" y="428">Coffee</tspan>
            </text>
        </g>
        <g id="mug" transform="translate(0.000000, 10.000000)">
            <path
                d="M485.744804,68.632403 C488.591203,62.4738404 490.365992,55.6270173 490.365992,48.4097543 C490.365992,21.714932 468.820096,0 442.118258,0 L48.4224759,0 C21.7206384,0 0,21.714932 0,48.4097543 C0,64.8732803 8.27182208,79.4383021 20.8700871,88.1857342 C20.9227202,125.204463 21.0027226,182.805756 21.076409,243.877818 C21.1753592,323.663408 52.9257662,372.851928 79.5433906,400.062419 C108.725301,429.891247 138.271433,440.556126 139.513574,440.996024 C141.313627,441.62956 143.20842,442 145.115844,442 C145.12216,442 145.130582,442 145.136898,442 L345.799638,442 C347.709168,441.997895 349.622908,441.349625 351.422961,440.713984 C352.669313,440.271982 382.265973,429.577636 411.46262,399.685665 C420.894477,390.026867 430.962141,377.598189 440.031881,362.050238 C449.274258,364.752765 459.03244,366.228211 469.135895,366.228211 L469.839073,366.228211 C527.108125,366.228211 573,319.647503 573,262.391392 L573,171.187415 C573,119.46054 535.318892,76.457945 485.744804,68.632403 Z M245.270367,305.909657 C215.850555,305.909657 191.91722,281.982609 191.91722,252.570527 C191.91722,223.158444 215.850555,199.231396 245.270367,199.231396 C274.690179,199.231396 298.623514,223.158444 298.623514,252.570527 C298.623514,281.982609 274.690179,305.909657 245.270367,305.909657 Z M436.03808,237.837123 L331.034993,237.837123 C324.009524,196.850899 288.237946,165.555046 245.270367,165.555046 C202.302788,165.555046 166.531211,196.850899 159.505741,237.837123 L54.7531883,237.837123 C54.6900285,183.567684 54.6205528,132.518545 54.5679197,96.8174039 L435.84439,96.8174039 C435.897023,132.596422 435.968604,183.632932 436.03808,237.837123 Z M442.118258,63.1410531 L48.4224759,63.1410531 C40.2980266,63.1410531 33.6852006,56.5299644 33.6852006,48.4076496 C33.6852006,40.2853347 40.2980266,33.6742461 48.4224759,33.6742461 L442.118258,33.6742461 C450.242708,33.6742461 456.855534,40.2853347 456.855534,48.4076496 C456.855534,56.5299644 450.242708,63.1410531 442.118258,63.1410531 Z M160.335239,271.513474 C169.009178,310.409659 203.787043,339.586008 245.270367,339.586008 C286.753692,339.586008 321.531556,310.411764 330.205495,271.513474 L434.475928,271.513474 C423.484026,368.699213 356.501005,402.076686 342.57849,407.991095 L148.315938,408.224725 C134.220787,402.247173 67.3661906,368.888642 56.344814,271.513474 L160.335239,271.513474 Z M539.314799,262.391392 C539.314799,301.079205 508.534947,332.55186 469.839073,332.55186 L469.135895,332.55186 C464.207329,332.55186 459.398766,332.036191 454.756524,331.063786 C463.758894,307.174625 469.775913,278.185601 469.731701,243.378988 C469.71907,233.225568 469.704332,223.171072 469.693806,213.289168 C469.666436,193.178072 469.639067,173.788913 469.613803,155.791009 C469.586434,135.442074 469.56117,116.87588 469.538012,101.026948 L469.841178,101.026948 C508.537053,101.026948 539.316905,132.499602 539.316905,171.187415 L539.316905,262.391392 L539.314799,262.391392 Z"
                fill="#000000" id="Shape"/>
            <path
                d="M147.937641,408 L342.133915,407.765877 C356.05168,401.838976 423.013953,368.391006 434,271 L329.765141,271 C321.094162,309.978338 286.328163,339.21631 244.858991,339.21631 C203.38982,339.21631 168.623821,309.980447 159.952841,271 L56,271 C67.0155117,368.578726 133.847299,402.009822 147.937641,408 Z"
                fill="#FAFAFA" id="Shape"/>
            <path
                d="M52,97 C52.0532581,133.202478 52.1235589,184.968478 52.1874686,240 L158.183925,240 C165.29282,198.438224 201.489175,166.702896 244.96698,166.702896 C288.444785,166.702896 324.64114,198.438224 331.750034,240 L438,240 C437.929699,185.032507 437.857268,133.281448 437.80401,97 L52,97 Z"
                fill="#FFB929" id="Shape"/>
            <path
                d="M441.268657,33 L47.7313433,33 C39.6101642,33 33,39.5063571 33,47.5 C33,55.4936429 39.6101642,62 47.7313433,62 L441.268657,62 C449.389836,62 456,55.4936429 456,47.5 C456,39.5063571 449.389836,33 441.268657,33 Z"
                fill="#FAFAFA" id="Shape"/>
            <path
                d="M245,194 C213.017836,194 187,220.017836 187,252 C187,283.982164 213.017836,310 245,310 C276.982164,310 303,283.982164 303,252 C303,220.017836 276.982164,194 245,194 Z"
                fill="#A56905" id="Shape"/>
        </g>
    </g>
</svg>
